<?xml version="1.0" standalone="no"?>
<!DOCTYPE svg PUBLIC "-//W3C//DTD SVG 20010904//EN"
 "http://www.w3.org/TR/2001/REC-SVG-20010904/DTD/svg10.dtd">
<svg version="1.0" xmlns="http://www.w3.org/2000/svg"
 width="32.000000pt" height="32.000000pt" viewBox="0 0 32.000000 32.000000"
 preserveAspectRatio="xMidYMid meet">

<g transform="translate(0.000000,32.000000) scale(0.100000,-0.100000)"
fill="#000000" stroke="none">
<path d="M30 295 c0 -8 9 -15 20 -15 19 0 20 -7 20 -100 l0 -100 90 0 c73 0
90 3 90 15 0 12 -16 15 -80 15 -47 0 -80 4 -80 10 0 6 35 10 85 10 94 0 96 1
112 83 l6 27 -102 0 -101 0 0 35 c0 32 -2 35 -30 35 -20 0 -30 -5 -30 -15z
m226 -101 c-3 -9 -6 -20 -6 -25 0 -5 -36 -9 -80 -9 -79 0 -80 0 -80 25 0 25 1
25 86 25 74 0 85 -2 80 -16z"/>
<path d="M77 63 c-4 -3 -7 -12 -7 -20 0 -15 26 -18 34 -4 7 11 -18 33 -27 24z"/>
<path d="M207 64 c-14 -15 -6 -34 14 -34 14 0 19 5 17 17 -3 18 -20 27 -31 17z"/>
</g>
</svg>
